<?xml version="1.0" standalone="no"?>
<!DOCTYPE svg PUBLIC "-//W3C//DTD SVG 20010904//EN"
 "http://www.w3.org/TR/2001/REC-SVG-20010904/DTD/svg10.dtd">
<svg version="1.0" xmlns="http://www.w3.org/2000/svg"
 width="684.000000pt" height="684.000000pt" viewBox="0 0 684.000000 684.000000"
 preserveAspectRatio="xMidYMid meet">
<metadata>
Created by potrace 1.14, written by Peter Selinger 2001-2017
</metadata>
<g transform="translate(0.000000,684.000000) scale(0.100000,-0.100000)"
fill="#000000" stroke="none">
<path d="M3969 4834 c-6 -58 -12 -402 -12 -694 1 -586 3 -694 17 -721 14 -30
48 -36 71 -13 17 18 17 62 1 259 -2 22 -7 81 -10 130 -4 50 -9 106 -11 125 -4
32 -12 139 -20 265 -7 98 -16 352 -19 498 -2 81 -6 150 -9 154 -4 3 -7 2 -8
-3z"/>
<path d="M4705 4680 c-30 -58 -267 -656 -305 -770 -95 -286 -154 -478 -156
-512 -3 -48 20 -80 54 -76 40 5 60 49 66 149 7 128 61 334 181 694 100 299
171 492 187 510 4 5 8 15 8 22 0 23 -19 14 -35 -17z"/>
<path d="M3320 4670 c0 -45 218 -719 260 -805 5 -11 39 -100 75 -197 96 -265
124 -313 187 -327 20 -5 39 -7 42 -4 8 9 -25 105 -49 142 -13 20 -51 99 -85
176 -33 77 -65 149 -70 160 -21 45 -209 496 -238 570 -17 44 -47 125 -67 180
-36 97 -55 134 -55 105z"/>
<path d="M2873 4403 c105 -220 238 -445 463 -788 113 -173 174 -245 205 -245
16 0 18 5 13 28 -14 55 -55 122 -158 254 -127 163 -296 412 -440 650 -59 98
-112 180 -117 183 -5 3 10 -34 34 -82z"/>
<path d="M5154 4182 c-32 -32 -76 -78 -96 -103 -20 -24 -76 -91 -123 -149 -48
-58 -97 -116 -108 -130 -110 -128 -210 -260 -286 -377 -127 -198 -143 -229
-129 -258 27 -59 86 -25 119 70 32 94 59 140 164 290 127 181 396 540 415 555
15 12 120 145 120 152 0 18 -19 5 -76 -50z"/>
<path d="M1944 3942 c8 -14 212 -152 224 -152 6 0 12 -4 14 -8 3 -8 392 -232
402 -232 3 0 29 -14 58 -31 136 -81 515 -262 646 -309 62 -23 77 -24 64 -4
-16 25 -292 180 -463 260 -237 113 -617 306 -739 376 -79 46 -151 84 -204 107
-5 2 -6 -1 -2 -7z"/>
<path d="M5273 3626 c-44 -41 -109 -91 -144 -112 -79 -46 -138 -92 -254 -198
-49 -46 -109 -100 -133 -121 -24 -21 -50 -51 -58 -66 -14 -27 -19 -69 -9 -69
30 0 90 48 195 156 106 108 235 231 344 328 145 128 172 156 148 156 -5 0 -45
-33 -89 -74z"/>
<path d="M1240 3342 c0 -6 9 -12 20 -15 11 -3 20 -3 20 -1 0 2 -9 8 -20 14
-11 6 -20 7 -20 2z"/>
<path d="M1327 3320 c7 -7 108 -40 122 -40 3 0 -4 7 -16 15 -23 16 -121 39
-106 25z"/>
<path d="M1760 3220 c8 -5 26 -9 40 -9 23 0 23 1 5 9 -11 5 -29 9 -40 9 -17 1
-17 -1 -5 -9z"/>
<path d="M2125 3150 c-17 -7 -14 -9 15 -10 19 -1 58 -3 85 -5 l50 -4 -35 14
c-40 15 -86 18 -115 5z"/>
<path d="M2306 3130 c-11 -3 -15 -9 -9 -13 10 -6 90 -26 128 -32 11 -1 65 -12
120 -23 55 -12 111 -23 125 -26 14 -2 97 -18 185 -35 185 -35 252 -42 302 -31
50 12 62 26 32 40 -19 8 -555 88 -774 115 -27 4 -59 8 -70 9 -11 2 -29 0 -39
-4z"/>
<path d="M5427 3003 c-1 -1 -47 -4 -102 -8 -55 -3 -122 -8 -150 -10 -27 -2
-86 -7 -130 -10 -225 -15 -240 -17 -258 -33 -21 -19 -19 -51 5 -66 16 -10 105
-2 243 23 28 5 75 12 104 16 30 4 63 8 74 11 11 2 57 8 101 14 157 21 166 22
229 36 52 11 23 29 -47 29 -37 0 -68 -1 -69 -2z"/>
<path d="M427 2824 c-2 -3 -22 -5 -43 -5 -21 0 -50 -4 -64 -9 -14 -5 -36 -11
-50 -14 -36 -7 -129 -96 -135 -127 -16 -90 -8 -152 26 -201 13 -18 55 -45 117
-74 54 -25 125 -62 159 -82 56 -33 63 -40 63 -69 0 -44 -30 -63 -102 -63 -72
0 -146 24 -175 56 -17 18 -29 23 -50 19 -26 -4 -53 -28 -53 -47 0 -12 67 -70
104 -90 62 -34 73 -36 175 -36 98 -1 107 1 171 33 50 25 70 42 80 64 7 17 16
31 21 31 8 0 23 59 23 90 0 58 -16 98 -58 140 -58 59 -72 70 -92 70 -9 0 -22
6 -28 13 -6 7 -31 21 -56 31 -116 45 -155 84 -130 130 17 32 97 47 147 29 21
-8 45 -15 53 -16 8 -1 27 -10 41 -20 20 -13 32 -15 52 -8 51 20 43 77 -15 107
-50 26 -171 58 -181 48z"/>
<path d="M5637 2824 c-2 -2 -24 -6 -48 -9 -100 -10 -116 -16 -173 -68 -31 -29
-59 -63 -62 -77 -19 -88 -7 -168 33 -212 9 -10 76 -48 149 -84 74 -37 145 -77
159 -90 31 -29 32 -68 3 -88 -50 -35 -205 -11 -259 40 -29 28 -46 30 -77 8
-32 -22 -27 -46 16 -81 81 -65 127 -81 241 -82 100 -1 105 0 171 35 46 24 72
45 80 62 6 15 17 38 25 52 18 30 20 122 4 153 -7 12 -20 30 -30 39 -9 10 -23
25 -31 35 -17 24 -63 53 -83 53 -9 0 -18 7 -21 15 -4 8 -11 15 -18 15 -6 0
-23 6 -37 14 -14 7 -37 16 -51 19 -15 4 -40 19 -57 33 -49 41 -37 98 24 107
17 3 35 6 40 8 14 5 135 -24 135 -31 0 -4 11 -12 25 -18 19 -9 31 -9 50 0 25
11 28 15 28 43 0 29 -3 34 -37 54 -50 31 -185 69 -199 55z"/>
<path d="M6487 2824 c-2 -3 -22 -5 -43 -5 -21 0 -50 -4 -64 -9 -14 -5 -36 -11
-50 -14 -14 -3 -49 -29 -79 -57 l-53 -52 -5 -76 c-4 -67 -2 -81 19 -120 22
-41 35 -50 163 -115 77 -39 150 -78 162 -86 33 -21 35 -59 6 -88 -23 -23 -30
-24 -101 -20 -75 5 -162 35 -162 57 0 14 -29 22 -57 15 -13 -4 -29 -18 -34
-31 -8 -21 -5 -28 16 -45 14 -11 31 -25 38 -31 7 -7 35 -24 63 -39 45 -24 60
-27 154 -27 98 0 109 2 170 32 35 18 69 41 75 52 6 11 19 33 30 50 23 34 27
135 7 172 -22 39 -76 92 -122 117 -59 33 -130 66 -141 66 -23 0 -80 48 -89 75
-13 38 8 60 70 72 43 9 106 -3 150 -28 45 -27 63 -29 86 -14 56 37 10 98 -96
128 -68 20 -107 27 -113 21z"/>
<path d="M1006 2791 c-14 -16 -16 -26 -9 -48 5 -15 7 -39 5 -53 -5 -32 -4
-231 1 -335 6 -99 22 -138 79 -197 66 -66 138 -91 237 -82 42 3 81 10 86 14 6
4 21 11 35 15 41 13 83 54 114 114 29 54 30 62 33 206 1 83 2 177 2 210 0 33
1 67 1 75 2 81 -7 100 -50 100 -53 0 -56 -14 -54 -260 1 -128 -2 -233 -8 -243
-5 -10 -11 -27 -13 -37 -7 -36 -36 -67 -74 -78 -52 -16 -69 -15 -119 8 -40 18
-53 35 -69 95 -7 22 -13 200 -12 335 1 143 1 162 -5 168 -3 3 -41 7 -84 9 -68
3 -80 1 -96 -16z"/>
<path d="M1919 2773 c-8 -27 -11 -110 -9 -288 1 -137 2 -263 2 -280 0 -16 -1
-46 -2 -65 -1 -39 20 -61 53 -54 47 9 50 19 51 240 1 129 5 208 11 210 11 4
83 -100 111 -158 10 -21 21 -38 25 -38 4 0 12 -15 18 -32 6 -18 24 -48 40 -67
17 -19 33 -46 36 -60 4 -14 20 -40 37 -58 29 -30 35 -32 99 -32 94 0 97 5 91
159 -1 14 0 135 1 270 1 148 -2 252 -8 263 -12 21 -67 23 -84 3 -8 -9 -12 -76
-13 -200 -1 -102 -5 -186 -8 -186 -11 0 -70 78 -70 92 0 7 -18 38 -40 68 -22
30 -47 71 -56 89 -12 27 -76 134 -89 149 -1 1 -43 4 -93 7 l-90 5 -13 -37z"/>
<path d="M2842 2797 c-35 -16 -42 -69 -29 -224 3 -42 1 -75 -4 -79 -5 -3 -6
-10 -3 -16 4 -6 6 -56 5 -112 -5 -209 -2 -253 19 -267 8 -5 48 -8 88 -8 56 1
74 5 81 18 4 9 6 55 5 103 -2 59 1 90 9 95 7 5 39 9 72 10 122 4 211 35 251
90 11 15 28 51 37 78 38 119 -13 240 -122 289 -54 24 -72 26 -222 30 -101 2
-173 0 -187 -7z m292 -121 c26 -24 36 -43 38 -67 5 -106 -15 -172 -57 -186
-11 -3 -39 -7 -63 -7 -35 -1 -42 2 -43 19 -1 11 -1 73 -2 138 -1 130 2 137 60
137 22 0 42 -10 67 -34z"/>
<path d="M3711 2796 c-25 -11 -23 19 -25 -374 l-1 -323 24 -6 c33 -8 88 -8
134 1 l37 7 -2 118 c-2 90 0 122 11 135 24 28 51 15 78 -39 15 -27 30 -57 35
-65 5 -8 20 -40 34 -70 14 -30 29 -62 33 -70 10 -19 133 -26 172 -9 25 10 27
13 16 37 -6 15 -16 34 -23 42 -7 8 -20 35 -29 60 -10 25 -26 63 -36 86 -26 56
-25 88 6 104 55 30 93 181 59 236 -77 123 -107 135 -339 138 -90 1 -172 -3
-184 -8z m266 -92 c10 10 50 -57 57 -96 9 -51 -27 -137 -58 -139 -11 -1 -34
-2 -49 -3 -38 -3 -58 27 -51 73 3 20 6 65 7 101 2 59 4 65 27 70 14 4 33 3 43
-2 10 -5 21 -7 24 -4z"/>
<path d="M4603 2789 c-24 -9 -25 -11 -28 -70 -1 -19 -4 -40 -7 -45 -3 -5 -4
-18 -1 -29 2 -11 5 -133 6 -272 2 -261 4 -273 44 -280 10 -2 110 -3 222 -3
142 0 208 3 218 11 8 8 13 26 11 47 l-3 35 -147 0 c-82 1 -148 3 -149 6 0 3
-2 45 -5 93 -4 106 3 118 79 118 63 0 75 7 75 42 -1 32 -21 53 -43 45 -8 -4
-17 -2 -20 3 -4 6 -20 8 -37 5 -16 -3 -36 -1 -43 5 -15 12 -19 186 -5 195 5 3
64 7 130 9 137 4 153 11 139 61 l-8 31 -203 1 c-112 0 -213 -3 -225 -8z"/>
</g>
</svg>
